<svg xmlns="http://www.w3.org/2000/svg" viewBox="0 0 64 64" role="img" aria-labelledby="title desc">
  <title id="title">Thinking Hub Convergence</title>
  <desc id="desc">Three connected thoughts converge into one clear spark.</desc>
  <rect width="64" height="64" rx="14" fill="#0b0b0d"/>
  <g fill="none" stroke="#b8f033" stroke-width="5" stroke-linecap="round" stroke-linejoin="round">
    <path d="M18 20c9 0 11 7 22 11"/>
    <path d="M18 32h22"/>
    <path d="M18 44c9 0 11-7 22-11"/>
  </g>
  <g fill="#b8f033">
    <circle cx="17" cy="20" r="4.5"/>
    <circle cx="17" cy="32" r="4.5"/>
    <circle cx="17" cy="44" r="4.5"/>
    <path d="M43 22c1.2 6.4 3.6 8.8 10 10-6.4 1.2-8.8 3.6-10 10-1.2-6.4-3.6-8.8-10-10 6.4-1.2 8.8-3.6 10-10Z"/>
  </g>
  <g fill="#ff8a5c">
    <rect x="50" y="20" width="3" height="6" rx="1.5" transform="rotate(38 51.5 23)"/>
    <rect x="51" y="30.5" width="6" height="3" rx="1.5"/>
    <rect x="50" y="38" width="3" height="6" rx="1.5" transform="rotate(-38 51.5 41)"/>
  </g>
</svg>
